<svg xmlns="http://www.w3.org/2000/svg" viewBox="0 0 100 100">
  <rect width="100" height="100" rx="14" fill="#1b1e26"/>
  <g transform="translate(6 6) scale(0.88)">
    <path fill="#4da08f" d="M50 3 L93 25 L77 33 L72 30 L64 34 L64 40 L50 47 L36 40 L36 34 L28 30 L23 33 L7 25 Z"/>
    <path d="M8 29 L50 51 L92 29 M8 29 V73 L50 95 L92 73 V29 M50 51 V95" fill="none" stroke="#e6e8ee" stroke-width="7" stroke-linejoin="round" stroke-linecap="round"/>
    <g fill="#4da08f"><circle cx="17" cy="45" r="3.8"/><circle cx="17" cy="56" r="3.8"/><circle cx="17" cy="67" r="3.8"/></g>
    <path d="M25 48 L40 56 M25 59 L40 67 M25 70 L40 78" fill="none" stroke="#4da08f" stroke-width="5.5" stroke-linecap="round"/>
    <path d="M60 61 L69 64 L61 76 M71 75 L82 69" fill="none" stroke="#e6e8ee" stroke-width="5.5" stroke-linejoin="round" stroke-linecap="round"/>
  </g>
</svg>
